<svg id="Layer_1" enable-background="new 0 0 256 256" height="512" viewBox="0 0 256 256" width="512" xmlns="http://www.w3.org/2000/svg"><path d="m203.973 248h-148.496v-20.878c0-19.136 15.513-34.649 34.649-34.649h79.198c19.136 0 34.649 15.513 34.649 34.649z" fill="#6bdddd"/><path d="m194.505 101.656c-.137 0-.27.018-.407.02v-6.019c0-35.184-28.821-63.705-64.373-63.705-35.552 0-64.373 28.522-64.373 63.705v6.019c-.137-.003-.27-.02-.407-.02-10.846 0-19.639 8.702-19.639 19.436s8.793 19.436 19.639 19.436c.712 0 1.414-.042 2.107-.115 6.643 28.183 32.171 49.184 62.673 49.184 30.502 0 56.03-21.001 62.673-49.184.693.073 1.395.115 2.107.115 10.846 0 19.639-8.702 19.639-19.436s-8.793-19.436-19.639-19.436z" fill="#f9cfcf"/><path d="m129.725 191.596c-30.434 0-56.595-20.094-64.209-49.077-12.183.351-22.21-9.419-22.21-21.428 0-11.289 8.855-20.567 20.046-21.378v-4.056c0-36.23 29.775-65.706 66.373-65.706s66.373 29.476 66.373 65.706v4.056c11.191.81 20.046 10.088 20.046 21.378 0 11.82-9.708 21.436-21.639 21.436-.188 0-.379-.003-.571-.008-7.614 28.983-33.775 49.077-64.209 49.077zm-62.671-53.184c.918 0 1.73.63 1.945 1.541 6.612 28.052 31.583 47.643 60.726 47.643s54.114-19.591 60.726-47.643c.231-.98 1.147-1.643 2.157-1.53.663.07 1.283.104 1.897.104 9.726 0 17.639-7.822 17.639-17.436 0-9.612-7.911-17.433-17.634-17.436-.18.012-.274.018-.369.02-.557.015-1.058-.194-1.442-.57s-.601-.891-.601-1.429v-6.019c0-34.024-27.98-61.706-62.373-61.706s-62.373 27.682-62.373 61.707v6.019c0 .538-.217 1.053-.601 1.429s-.886.583-1.442.57c-.095-.002-.189-.008-.284-.015-.003 0-.007 0-.01 0-9.802 0-17.709 7.819-17.709 17.43 0 9.614 7.913 17.436 17.639 17.436.613 0 1.234-.034 1.896-.104.072-.007.143-.011.213-.011z" fill="#3762cc"/><path d="m44.203 79.105c-2.913-7.8-3.12-16.353-.588-24.285l.218-.682c4.142-12.976 15.056-22.642 28.437-25.187 6.316-1.201 12.835-.742 18.921 1.332l.711.242c.041.369.103.739.193 1.107 2.922 11.944 8.286 22.952 15.574 32.411-6.325 17.623-14.064 27.669-19.964 33.232v.001l-7.743 7.86-15.015-3.481c-4.103 0-7.909 1.249-11.059 3.377z" fill="#4671c6"/><path d="m206.012 52.394c-5.051-15.671-16.587-28.124-31.336-34.263l.001-.008c-51.85-25.523-80.208 5.27-80.208 5.27-2.134 2.054-3.124 5.177-2.375 8.242 5.952 24.331 21.99 44.817 43.937 56.122l.031.016c4.738 2.441 9.685 4.433 14.779 5.954 1.267.378 2.288-1.089 1.521-2.184l-10.661-15.213c-.929-1.326.703-2.945 1.971-1.952 11.789 9.231 34.693 24.524 57.863 25.292l3.773-10.332c4.336-11.878 4.584-24.905.704-36.944z" fill="#4671c6"/><path d="m79.96 107.138c-.15 0-.302-.017-.452-.052l-14.787-3.428c-3.485.043-6.84 1.089-9.716 3.033-.509.344-1.146.436-1.729.248-.583-.187-1.05-.631-1.264-1.205l-9.684-25.929c-3.056-8.183-3.275-17.271-.619-25.592l.217-.681c4.371-13.689 15.854-23.86 29.969-26.545 6.644-1.263 13.538-.779 19.939 1.404l.711.243c.734.25 1.257.903 1.342 1.674.033.297.083.583.148.849 2.835 11.589 7.954 22.243 15.216 31.667.416.54.528 1.255.298 1.896-6.593 18.372-14.773 28.636-20.474 34.011l-7.691 7.81c-.379.386-.894.597-1.424.597zm-15.015-7.482c.152 0 .304.018.452.052l13.924 3.229 6.958-7.063c5.331-5.029 12.881-14.502 19.137-31.487-7.25-9.651-12.384-20.504-15.264-32.278-.005-.022-.011-.045-.017-.068-5.629-1.842-11.668-2.231-17.492-1.124-12.672 2.41-22.982 11.542-26.905 23.831l-.217.681c-2.385 7.472-2.188 15.631.555 22.978l8.847 23.688c3.081-1.602 6.501-2.439 10.022-2.439z" fill="#3762cc"/><path d="m201.534 101.668c-.022 0-.044 0-.067-.001-21.864-.725-43.399-14.009-55.929-23.348l8.462 12.075c.852 1.215.841 2.779-.027 3.982-.855 1.186-2.31 1.682-3.704 1.266-5.2-1.552-10.288-3.602-15.123-6.092-22.511-11.596-38.899-32.526-44.995-57.441-.892-3.645.215-7.517 2.89-10.119.686-.729 7.957-8.218 21.458-12.702 12.737-4.231 33.67-6.444 61.062 7.04.018.009.035.018.052.027 15.354 6.449 27.122 19.352 32.303 35.425 4.001 12.415 3.742 25.996-.73 38.242l-3.773 10.333c-.289.79-1.041 1.313-1.879 1.313zm-58.715-29.604c.726 0 1.456.245 2.085.738 11.206 8.774 33.084 23.477 55.254 24.8l3.27-8.953c4.168-11.414 4.409-24.072.68-35.642-4.84-15.017-15.848-27.056-30.202-33.03-.095-.04-.187-.086-.272-.139-49.834-24.441-77.421 4.612-77.694 4.909-.027.029-.056.058-.084.086-1.681 1.618-2.377 4.042-1.818 6.326 5.819 23.79 21.459 43.771 42.91 54.82 4.124 2.124 8.414 3.904 12.797 5.313l-9.682-13.816c-.987-1.408-.798-3.287.447-4.468.661-.627 1.482-.944 2.309-.944z" fill="#3762cc"/><path d="m134.483 189.404c-.26.02-.519.042-.78.059-.404.025-.808.046-1.214.063-.917.041-1.837.07-2.764.07s-1.848-.029-2.765-.07c-.406-.017-.811-.039-1.215-.063-.26-.017-.518-.039-.777-.059-9.48-.687-18.392-3.389-26.285-7.704v7.397c0 17.197 13.451 31.139 30.043 31.139h1.997c16.592 0 30.043-13.942 30.043-31.139v-7.397c-7.893 4.315-16.804 7.017-26.283 7.704z" fill="#f9cfcf"/><g fill="#3762cc"><path d="m203.973 250h-148.496c-1.104 0-2-.896-2-2v-20.878c0-20.208 16.44-36.649 36.649-36.649h6.586c-.019-.462-.029-.922-.029-1.375v-7.397c0-.706.373-1.36.98-1.72.607-.361 1.36-.373 1.979-.035 7.862 4.297 16.432 6.809 25.47 7.464l.764.058c.381.023.773.044 1.167.061 1.784.079 3.58.079 5.355 0 .399-.017.791-.038 1.183-.062l.743-.057c9.049-.656 17.618-3.167 25.481-7.465.619-.338 1.372-.326 1.979.035.607.36.98 1.014.98 1.72v7.397c0 .454-.01.913-.029 1.375h6.586c20.208 0 36.649 16.44 36.649 36.649v20.879c.003 1.104-.893 2-1.997 2zm-146.496-4h144.496v-18.878c0-18.003-14.646-32.649-32.649-32.649h-8.736c-.566 0-1.106-.24-1.485-.661s-.563-.982-.504-1.546c.111-1.073.168-2.14.168-3.169v-4.119c-7.544 3.648-15.649 5.805-24.139 6.42l-.793.061c-.427.026-.843.048-1.261.065-1.884.084-3.809.084-5.702 0-.413-.018-.83-.04-1.246-.064l-.811-.062c-8.483-.615-16.587-2.771-24.131-6.419v4.119c0 1.033.056 2.099.167 3.169.059.563-.125 1.125-.504 1.546-.379.42-.919.661-1.485.661h-8.736c-18.002 0-32.649 14.646-32.649 32.649z"/><path d="m90.501 135.108c-1.033 0-2.038-.534-2.595-1.49-.834-1.432-.35-3.269 1.082-4.103l13.925-8.111-13.925-8.112c-1.432-.834-1.916-2.67-1.082-4.103.834-1.432 2.671-1.916 4.103-1.082l15.2 8.854c1.599.931 2.553 2.592 2.553 4.442 0 1.851-.954 3.511-2.553 4.442l-15.201 8.855c-.475.277-.994.408-1.507.408zm13.687-12.962h.01z"/><path d="m168.933 135.108c-.513 0-1.032-.131-1.507-.408l-15.2-8.854c-1.599-.931-2.553-2.592-2.553-4.442s.954-3.511 2.553-4.442l15.199-8.854c1.433-.834 3.269-.35 4.103 1.082s.35 3.269-1.082 4.103l-13.925 8.111 13.925 8.112c1.432.834 1.916 2.67 1.082 4.103-.557.955-1.563 1.489-2.595 1.489z"/></g><path d="m109.22 153.676c-4.921 7.612-.239 17.866 8.593 19.172 3.738.553 7.744.853 11.912.853s8.174-.3 11.912-.853c8.832-1.306 13.514-11.561 8.593-19.172-4.796-7.419-12.198-12.175-20.505-12.175-8.307-.001-15.709 4.756-20.505 12.175z" fill="#f9a7a7"/><path d="m129.725 175.7c-4.177 0-8.283-.294-12.205-.874-4.827-.714-8.93-3.839-10.977-8.361-2.056-4.543-1.684-9.73.997-13.875 5.378-8.319 13.464-13.09 22.185-13.09s16.807 4.771 22.185 13.089c2.68 4.146 3.052 9.333.996 13.876-2.046 4.521-6.15 7.646-10.977 8.36-3.921.581-8.028.875-12.204.875zm0-32.2c-7.337 0-14.199 4.104-18.826 11.262-1.938 2.998-2.205 6.756-.712 10.054 1.483 3.276 4.443 5.54 7.917 6.053 7.458 1.103 15.782 1.103 23.24 0 3.475-.514 6.435-2.776 7.917-6.053 1.493-3.298 1.227-7.057-.711-10.055-4.626-7.157-11.488-11.261-18.825-11.261zm-20.505 10.176h.01z" fill="#3762cc"/><path d="m149.968 189.513c-1.109 0-2.192.108-3.251.281v-27.461c0-1.105-.895-2-2-2h-30c-1.105 0-2 .895-2 2v27.491c-1.123-.195-2.274-.311-3.454-.311-11.18 0-20.243 9.063-20.243 20.243 0 11.043 8.846 20.004 19.836 20.223 4.176 7.186 11.952 12.02 20.861 12.02 8.914 0 16.693-4.839 20.867-12.031 10.893-.329 19.627-9.24 19.627-20.212.001-11.179-9.063-20.243-20.243-20.243z" fill="#e0ebfc"/><path d="m120.357 193.375c-1.105 0-2-.895-2-2v-24.75c0-1.105.895-2 2-2 1.105 0 2 .895 2 2v24.75c0 1.105-.896 2-2 2z" fill="#a4c9ff"/><path d="m129.725 205.71c-1.105 0-2-.895-2-2v-24.75c0-1.105.895-2 2-2 1.105 0 2 .895 2 2v24.75c0 1.105-.895 2-2 2z" fill="#a4c9ff"/><path d="m138.655 193.375c-1.105 0-2-.895-2-2v-24.75c0-1.105.895-2 2-2 1.105 0 2 .895 2 2v24.75c0 1.105-.896 2-2 2z" fill="#a4c9ff"/></svg>