<svg id="Layer_1" enable-background="new 0 0 256 256" height="512" viewBox="0 0 256 256" width="512" xmlns="http://www.w3.org/2000/svg"><path d="m177.463 248.451h-149.053v-20.956c0-19.208 15.571-34.779 34.779-34.779h79.495c19.208 0 34.779 15.571 34.779 34.779z" fill="#6bdddd"/><path d="m167.96 101.557c-.138 0-.271.018-.408.02v-6.042c0-35.316-28.929-63.945-64.615-63.945-35.686 0-64.615 28.629-64.615 63.945v6.042c-.137-.003-.271-.02-.408-.02-10.887 0-19.713 8.734-19.713 19.509 0 10.774 8.826 19.509 19.713 19.509.715 0 1.42-.042 2.115-.116 6.668 28.289 32.292 49.369 62.908 49.369 30.616 0 56.24-21.08 62.908-49.369.695.073 1.4.116 2.115.116 10.887 0 19.713-8.734 19.713-19.509 0-10.774-8.826-19.509-19.713-19.509z" fill="#f9cfcf"/><path d="m115.428 161.544c-1.104 0-2-.896-2-2 0-1.59-.702-3.124-2.029-4.438-1.17-1.157-2.767-2.063-4.618-2.616-1.114-.332-2.375-.494-3.854-.494-1.478 0-2.739.162-3.855.495-1.849.553-3.446 1.457-4.617 2.616-1.327 1.313-2.028 2.849-2.028 4.438 0 1.104-.896 2-2 2s-2-.896-2-2c0-2.643 1.142-5.228 3.214-7.28 1.636-1.619 3.81-2.866 6.286-3.606 1.494-.445 3.129-.662 5-.662 1.872 0 3.507.217 4.999.662 2.479.741 4.652 1.987 6.287 3.605 2.073 2.053 3.215 4.639 3.215 7.281 0 1.103-.895 1.999-2 1.999z" fill="#3762cc"/><path d="m70.965 134.945c-4.086 0-7.411-3.319-7.411-7.399v-12.333c0-4.08 3.324-7.4 7.411-7.4 4.085 0 7.409 3.32 7.409 7.4v12.333c.001 4.08-3.323 7.399-7.409 7.399z" fill="#3762cc"/><path d="m134.877 134.945c-4.086 0-7.411-3.319-7.411-7.399v-12.333c0-4.08 3.324-7.4 7.411-7.4 4.085 0 7.409 3.32 7.409 7.4v12.333c.001 4.08-3.323 7.399-7.409 7.399z" fill="#3762cc"/><path d="m107.712 189.635c-.261.02-.521.042-.783.06-.405.025-.811.046-1.219.063-.92.041-1.844.07-2.774.07-.931 0-1.855-.029-2.775-.07-.408-.017-.814-.039-1.219-.063-.261-.017-.52-.039-.78-.059-9.516-.689-18.461-3.402-26.384-7.733v7.425c0 17.262 13.501 31.256 30.156 31.256h2.005c16.655 0 30.156-13.994 30.156-31.256v-7.425c-7.923 4.33-16.868 7.042-26.383 7.732z" fill="#f9cfcf"/><path d="m102.937 191.827c-30.547 0-56.805-20.17-64.444-49.261-.195.005-.388.008-.579.008-11.973 0-21.713-9.648-21.713-21.508 0-11.33 8.889-20.643 20.122-21.451v-4.079c0-36.362 29.883-65.944 66.615-65.944s66.614 29.582 66.614 65.944v4.078c11.232.81 20.122 10.122 20.122 21.452 0 12.05-10.081 21.779-22.292 21.5-7.641 29.091-33.899 49.261-64.445 49.261zm-62.907-53.368c.918 0 1.73.63 1.945 1.541 6.637 28.16 31.706 47.827 60.961 47.827s54.325-19.667 60.962-47.827c.23-.981 1.149-1.634 2.156-1.53.665.07 1.289.104 1.905.104 9.767 0 17.713-7.854 17.713-17.508 0-9.653-7.943-17.507-17.709-17.509-.181.012-.274.018-.37.021-.572-.004-1.059-.194-1.442-.571-.384-.376-.601-.891-.601-1.429v-6.042c0-34.156-28.089-61.944-62.614-61.944-34.526 0-62.615 27.788-62.615 61.944v6.042c0 .538-.217 1.053-.601 1.43-.384.376-.911.562-1.441.57-.096-.003-.19-.009-.284-.015-.003 0-.007 0-.01 0-9.845 0-17.785 7.852-17.785 17.503 0 9.654 7.946 17.508 17.713 17.508.616 0 1.239-.034 1.905-.104.072-.007.142-.011.212-.011z" fill="#3762cc"/><path d="m17.093 78.921c-2.924-7.829-3.132-16.414-.59-24.376l.218-.684c4.158-13.024 15.113-22.727 28.544-25.282 6.34-1.206 12.884-.745 18.992 1.337l.713.243c.041.37.103.742.194 1.111 2.933 11.989 8.317 23.038 15.632 32.533-6.348 17.69-14.116 27.775-20.038 33.358v.002l-7.773 7.889-15.072-3.494c-4.118 0-7.939 1.253-11.101 3.39z" fill="#4671c6"/><path d="m179.51 52.11c-5.07-15.73-16.649-28.23-31.454-34.392l.001-.008c-52.045-25.619-80.51 5.289-80.51 5.289-2.142 2.062-3.136 5.197-2.384 8.273 5.975 24.423 22.073 44.985 44.102 56.333l.031.016c4.756 2.45 9.721 4.45 14.835 5.976 1.272.38 2.297-1.093 1.527-2.192l-10.701-15.271c-.933-1.331.706-2.956 1.978-1.959 11.833 9.266 34.824 24.616 58.08 25.387l3.787-10.371c4.354-11.921 4.603-24.997.708-37.081z" fill="#4671c6"/><path d="m52.985 107.052c-.15 0-.302-.017-.452-.052l-14.843-3.441c-3.5.043-6.87 1.094-9.758 3.046-.508.342-1.146.435-1.729.248-.584-.188-1.05-.631-1.264-1.206l-9.719-26.027c-3.067-8.212-3.288-17.332-.622-25.683l.219-.685c4.385-13.737 15.91-23.944 30.075-26.638 6.666-1.269 13.586-.781 20.011 1.409l.713.243c.734.25 1.257.901 1.343 1.672.033.301.083.589.149.857 2.846 11.631 7.985 22.326 15.274 31.787.416.54.528 1.255.298 1.896-6.619 18.442-14.829 28.744-20.55 34.138l-7.72 7.839c-.381.386-.896.597-1.425.597zm-15.071-7.494c.152 0 .304.018.452.052l13.98 3.241 6.987-7.092c5.351-5.048 12.931-14.56 19.211-31.611-7.278-9.688-12.431-20.582-15.323-32.4-.006-.024-.012-.049-.018-.073-5.654-1.851-11.72-2.241-17.564-1.129-12.723 2.418-23.074 11.585-27.012 23.924l-.219.685c-2.394 7.499-2.196 15.691.559 23.066v.001l8.882 23.785c3.093-1.609 6.528-2.449 10.065-2.449z" fill="#3762cc"/><path d="m175.016 101.562c-.021 0-.044 0-.066-.001-21.966-.728-43.603-14.087-56.173-23.462l8.52 12.158c.854 1.217.842 2.783-.027 3.989-.856 1.187-2.313 1.686-3.709 1.267-5.214-1.556-10.321-3.612-15.177-6.113-22.596-11.64-39.046-32.647-45.163-57.653-.894-3.657.216-7.54 2.899-10.149.686-.73 7.983-8.247 21.535-12.749 12.784-4.245 33.793-6.467 61.285 7.066.019.009.037.018.056.027 15.408 6.473 27.218 19.421 32.418 35.554 4.016 12.459 3.755 26.089-.732 38.38l-3.787 10.371c-.29.791-1.041 1.315-1.879 1.315zm-58.936-29.7c.727 0 1.458.244 2.088.737 11.25 8.81 33.217 23.57 55.473 24.896l3.283-8.991c4.184-11.459 4.427-24.167.684-35.782-4.859-15.075-15.91-27.161-30.319-33.158-.096-.04-.188-.087-.274-.14-20.654-10.129-40.667-12.498-57.887-6.85-13.048 4.279-20.041 11.707-20.11 11.781-.026.027-.055.058-.082.084-1.689 1.625-2.389 4.061-1.828 6.355 5.842 23.881 21.542 43.938 43.075 55.03 4.149 2.138 8.464 3.928 12.869 5.342l-9.731-13.887c-.988-1.409-.8-3.291.447-4.474.661-.625 1.483-.943 2.312-.943z" fill="#3762cc"/><path d="m146.714 112.194c-.133 0-.267-.013-.401-.04l-23.352-4.764c-1.082-.221-1.78-1.277-1.56-2.359s1.272-1.78 2.359-1.561l23.351 4.764c1.083.221 1.781 1.277 1.561 2.359-.193.948-1.027 1.601-1.958 1.601z" fill="#3762cc"/><path d="m59.159 112.194c-.931 0-1.765-.652-1.958-1.601-.221-1.082.478-2.139 1.56-2.359l23.352-4.764c1.082-.222 2.139.478 2.359 1.561.221 1.082-.478 2.139-1.56 2.359l-23.352 4.764c-.134.028-.269.04-.401.04z" fill="#3762cc"/><path d="m177.463 250.451h-149.053c-1.104 0-2-.896-2-2v-20.957c0-20.28 16.499-36.779 36.779-36.779h6.619c-.02-.467-.029-.93-.029-1.388v-7.425c0-.706.373-1.36.98-1.721.607-.359 1.36-.374 1.979-.034 7.893 4.314 16.495 6.835 25.569 7.492l.77.06c.38.022.775.043 1.171.061 1.788.08 3.592.08 5.374 0 .399-.018.793-.038 1.188-.062l.746-.058c9.084-.658 17.686-3.179 25.581-7.494.619-.339 1.372-.324 1.979.034.607.36.979 1.015.979 1.721v7.426c0 .458-.01.921-.029 1.388h6.618c20.28 0 36.779 16.499 36.779 36.779v20.957c0 1.105-.896 2-2 2zm-147.053-4h145.053v-18.957c0-18.074-14.705-32.779-32.779-32.779h-8.769c-.566 0-1.106-.24-1.485-.661-.38-.421-.563-.983-.504-1.547.112-1.073.169-2.144.169-3.18v-4.147c-7.575 3.665-15.712 5.832-24.238 6.45l-.793.06c-.43.026-.847.049-1.267.066-1.893.084-3.825.084-5.724 0-.417-.018-.834-.04-1.251-.065l-.816-.062c-8.516-.617-16.653-2.784-24.227-6.448v4.146c0 1.035.057 2.105.168 3.181.059.563-.125 1.125-.504 1.546s-.919.661-1.485.661h-8.769c-18.075 0-32.779 14.705-32.779 32.779v18.957z" fill="#3762cc"/><path d="m135.205 100.756h-68c-3.314 0-6-2.686-6-6v-26c0-3.314 2.686-6 6-6h68c3.314 0 6 2.686 6 6v26c0 3.314-2.686 6-6 6z" fill="#e0ebfc"/><path d="m114.03 95.631h-25.65c-3.198 0-5.8-2.602-5.8-5.8v-16.15c0-3.198 2.602-5.8 5.8-5.8h25.65c3.198 0 5.8 2.602 5.8 5.8v16.15c0 3.198-2.601 5.8-5.8 5.8zm-25.65-23.75c-.992 0-1.8.808-1.8 1.8v16.15c0 .992.808 1.8 1.8 1.8h25.65c.992 0 1.8-.808 1.8-1.8v-16.15c0-.992-.808-1.8-1.8-1.8z" fill="#3762cc"/><path d="m155.588 215.066c-49.056 13.811-92.5 3.703-105.362.04-2.286-.651-3.85-2.651-3.85-4.928v-24.28c0-6.623 6.455-11.495 13.217-10.013 17.344 3.802 49.933 8.276 86.706-.025 6.736-1.521 13.181 3.412 13.181 10.019v24.244c0 2.288-1.591 4.296-3.892 4.943z" fill="#a4c9ff"/><path d="m192.838 121.344c-10.978-.603-19.992-9.298-20.964-20.25-.693-7.808 2.665-15.207 8.775-19.817.717-.541 1.149-1.378 1.149-2.276v-58.07c0-6.689 5.234-12.35 11.92-12.549 6.947-.206 12.665 5.385 12.665 12.287v58.332c0 .899.433 1.736 1.15 2.278 5.579 4.21 8.862 10.746 8.862 17.794 0 12.715-10.693 22.978-23.557 22.271z" fill="#e0ebfc"/><path d="m187.525 46.854v-26.185c0-3.62 2.944-6.564 6.564-6.564s6.564 2.944 6.564 6.564v26.186h-13.128z" fill="#a4c9ff"/><path d="m194.106 123.38c-.458 0-.917-.013-1.378-.038-11.967-.658-21.789-10.146-22.847-22.07-.748-8.437 2.826-16.508 9.562-21.591.225-.169.354-.417.354-.679v-58.071c0-7.794 6.218-14.32 13.861-14.548 3.905-.141 7.583 1.318 10.382 4.034 2.801 2.719 4.343 6.359 4.343 10.252v58.332c0 .263.13.512.355.683 6.136 4.631 9.656 11.698 9.656 19.39 0 6.639-2.773 13.071-7.608 17.647-4.565 4.322-10.444 6.659-16.68 6.659zm-1.159-4.032c5.636.31 10.994-1.655 15.09-5.531 4.1-3.881 6.357-9.117 6.357-14.743 0-6.425-2.94-12.329-8.067-16.197-1.218-.922-1.944-2.369-1.944-3.875v-58.333c0-2.802-1.111-5.423-3.129-7.382-2.017-1.957-4.704-2.981-7.477-2.906-5.503.164-9.98 4.896-9.98 10.55v58.071c0 1.506-.727 2.953-1.943 3.872-5.627 4.246-8.612 10.991-7.987 18.044.883 9.957 9.086 17.88 19.08 18.43z" fill="#3762cc"/><path d="m135.205 102.756h-68c-4.411 0-8-3.589-8-8v-26c0-4.411 3.589-8 8-8h68c4.411 0 8 3.589 8 8v26c0 4.411-3.589 8-8 8zm-68-38c-2.206 0-4 1.794-4 4v26c0 2.206 1.794 4 4 4h68c2.206 0 4-1.794 4-4v-26c0-2.206-1.794-4-4-4z" fill="#3762cc"/><path d="m114.337 221.811v23.555c0 1.703 1.381 3.085 3.085 3.085h33.388c1.704 0 3.085-1.381 3.085-3.085v-29.846c-13.85 3.754-27.221 5.625-39.558 6.291z" fill="#a4c9ff"/><path d="m103.45 224.089c-26.018 0-46.062-4.863-53.771-7.059-3.171-.904-5.302-3.658-5.302-6.853v-24.28c0-3.644 1.664-7.072 4.565-9.406 3.096-2.491 7.133-3.425 11.08-2.562 16.247 3.563 49.001 8.294 85.836-.021 3.9-.881 7.912.032 11.006 2.506 2.934 2.346 4.616 5.795 4.616 9.464v24.244c0 3.158-2.2 5.983-5.351 6.869-18.811 5.297-36.852 7.098-52.679 7.098zm-46.315-46.473c-2.067 0-4.065.688-5.686 1.991-1.953 1.571-3.073 3.864-3.073 6.29v24.28c0 1.389.964 2.597 2.398 3.005 12.143 3.46 55.548 13.676 104.271-.041 1.434-.403 2.435-1.646 2.435-3.02v-24.244c0-2.446-1.135-4.757-3.114-6.339-2.137-1.71-4.92-2.342-7.627-1.729-37.593 8.485-71.003 3.659-87.574.026-.676-.146-1.357-.219-2.03-.219z" fill="#3762cc"/><path d="m150.81 250.451h-33.388c-2.804 0-5.085-2.281-5.085-5.085v-23.556c0-1.063.831-1.939 1.893-1.997 13.404-.723 26.574-2.816 39.142-6.225.604-.163 1.244-.036 1.738.342.495.379.785.966.785 1.589v29.847c0 2.804-2.282 5.085-5.085 5.085zm-34.474-26.755v21.67c0 .599.487 1.085 1.085 1.085h33.388c.599 0 1.085-.486 1.085-1.085v-27.252c-11.477 2.938-23.418 4.813-35.558 5.582z" fill="#3762cc"/><path d="m194.089 116.065c-.408 0-.819-.014-1.234-.043-8.41-.598-15.168-7.394-15.72-15.81-.447-6.818 3.208-13.22 9.311-16.308.666-.337 1.08-1.005 1.08-1.741v-47.019h13.129v47.021c0 .735.413 1.402 1.078 1.739 5.768 2.919 9.35 8.73 9.35 15.169 0 4.531-1.77 8.797-4.983 12.01-3.214 3.213-7.48 4.982-12.011 4.982 0 0 .001 0 0 0z" fill="#f9a7a7"/><g fill="#6bdddd"><path d="m213.082 38.468h-11.032c-1.306 0-2.364-1.058-2.364-2.364 0-1.306 1.058-2.364 2.364-2.364h11.032c1.306 0 2.364 1.058 2.364 2.364 0 1.305-1.058 2.364-2.364 2.364z"/><path d="m209.142 49.815h-7.092c-1.306 0-2.364-1.058-2.364-2.364 0-1.306 1.058-2.364 2.364-2.364h7.092c1.306 0 2.364 1.058 2.364 2.364 0 1.305-1.058 2.364-2.364 2.364z"/><path d="m213.082 61.162h-11.032c-1.306 0-2.364-1.058-2.364-2.364 0-1.306 1.058-2.364 2.364-2.364h11.032c1.306 0 2.364 1.058 2.364 2.364 0 1.305-1.058 2.364-2.364 2.364z"/><path d="m209.142 72.509h-7.092c-1.306 0-2.364-1.058-2.364-2.364 0-1.306 1.058-2.364 2.364-2.364h7.092c1.306 0 2.364 1.058 2.364 2.364 0 1.305-1.058 2.364-2.364 2.364z"/><path d="m209.142 27.121h-7.092c-1.306 0-2.364-1.058-2.364-2.364 0-1.306 1.058-2.364 2.364-2.364h7.092c1.306 0 2.364 1.058 2.364 2.364 0 1.305-1.058 2.364-2.364 2.364z"/></g><path d="m226.73 27.518-11.752 16.026c-.484.661-.013 1.591.806 1.591h2.954c.552 0 1 .448 1 1v26.075c0 .552.448 1 1 1h13.597c.552 0 1-.448 1-1v-26.074c0-.552.448-1 1-1h2.954c.819 0 1.291-.931.806-1.591l-11.752-16.026c-.399-.546-1.213-.546-1.613-.001z" fill="#f9cfcf"/></svg>