<svg id="Layer_1" enable-background="new 0 0 256 256" height="512" viewBox="0 0 256 256" width="512" xmlns="http://www.w3.org/2000/svg"><path d="m198.976 240.108h-138.729v-19.505c0-17.878 14.493-32.37 32.37-32.37h73.989c17.878 0 32.37 14.493 32.37 32.37z" fill="#6bdddd"/><path d="m190.131 103.389c-.128 0-.252.016-.38.019v-5.623c0-32.87-26.925-59.516-60.139-59.516-33.214 0-60.139 26.646-60.139 59.516v5.623c-.128-.003-.252-.019-.38-.019-10.133 0-18.348 8.129-18.348 18.157s8.215 18.157 18.348 18.157c.666 0 1.321-.039 1.969-.108 6.206 26.33 30.055 45.949 58.551 45.949 28.496 0 52.345-19.62 58.551-45.949.647.068 1.303.108 1.969.108 10.133 0 18.348-8.129 18.348-18.157-.003-10.028-8.217-18.157-18.35-18.157z" fill="#f9cfcf"/><path d="m129.611 187.545c-28.457 0-52.924-18.766-60.086-45.846-.145.003-.289.005-.433.005-11.22 0-20.348-9.042-20.348-20.157 0-10.575 8.262-19.273 18.728-20.094v-3.668c0-33.92 27.875-61.516 62.139-61.516s62.14 27.596 62.14 61.516v3.668c10.466.82 18.728 9.519 18.728 20.094 0 11.115-9.128 20.157-20.348 20.157-.145 0-.288-.001-.434-.005-7.162 27.08-31.629 45.846-60.086 45.846zm-58.549-49.949c.917 0 1.73.63 1.945 1.541 6.163 26.147 29.439 44.408 56.604 44.408s50.441-18.261 56.604-44.408c.23-.981 1.156-1.643 2.156-1.53.617.065 1.192.097 1.759.097 9.014 0 16.348-7.248 16.348-16.157 0-8.907-7.329-16.154-16.341-16.157-.165.011-.252.017-.341.019-.548.007-1.059-.193-1.443-.569-.386-.376-.603-.892-.603-1.431v-5.624c0-31.714-26.081-57.516-58.14-57.516-32.058 0-58.139 25.801-58.139 57.516v5.624c0 .539-.217 1.054-.602 1.43s-.906.59-1.444.569c-.089-.002-.177-.007-.265-.014-.003 0-.006 0-.009 0-9.079 0-16.407 7.246-16.407 16.152 0 8.909 7.333 16.157 16.348 16.157.566 0 1.142-.032 1.758-.097.071-.007.142-.01.212-.01z" fill="#3762cc"/><path d="m141.046 159.359c-1.104 0-2-.896-2-2 0-1.448-.629-2.846-1.818-4.044-1.052-1.058-2.488-1.885-4.152-2.391-1.002-.304-2.137-.452-3.472-.452-1.334 0-2.469.148-3.47.452-1.666.506-3.102 1.333-4.153 2.392-1.189 1.198-1.818 2.596-1.818 4.043 0 1.104-.896 2-2 2s-2-.896-2-2c0-2.49 1.059-4.927 2.98-6.862 1.516-1.527 3.531-2.702 5.828-3.4 1.384-.42 2.899-.625 4.633-.625s3.25.205 4.634.625c2.296.697 4.311 1.873 5.828 3.399 1.922 1.936 2.98 4.373 2.98 6.863 0 1.104-.896 2-2 2z" fill="#3762cc"/><path d="m49.714 82.321c-2.721-7.287-2.915-15.277-.549-22.687l.203-.637c3.87-12.122 14.066-21.153 26.567-23.531 5.9-1.122 11.991-.694 17.676 1.244l.664.227c.038.344.096.69.181 1.034 2.73 11.158 7.741 21.442 14.55 30.279-5.909 16.464-13.139 25.85-18.651 31.046v.001l-7.234 7.343-14.028-3.252c-3.833 0-7.389 1.166-10.332 3.155z" fill="#4671c6"/><path d="m200.882 57.366c-4.719-14.641-15.496-26.275-29.275-32.01l.001-.008c-48.44-23.845-74.933 4.923-74.933 4.923-1.994 1.919-2.919 4.837-2.218 7.7 5.561 22.731 20.544 41.869 41.047 52.431l.029.015c4.426 2.28 9.048 4.142 13.807 5.562 1.184.353 2.138-1.017 1.421-2.04l-9.96-14.213c-.868-1.239.657-2.751 1.841-1.824 11.013 8.624 32.412 22.911 54.057 23.628l3.525-9.653c4.05-11.093 4.283-23.264.658-34.511z" fill="#4671c6"/><path d="m83.12 108.642c-.15 0-.302-.017-.452-.052l-13.798-3.199c-3.225.042-6.328 1.012-8.989 2.811-.508.343-1.146.435-1.729.248-.584-.187-1.05-.631-1.264-1.205l-9.048-24.224c-2.865-7.672-3.071-16.194-.581-23.995l.204-.638c4.096-12.833 14.863-22.369 28.098-24.886 6.228-1.185 12.693-.729 18.695 1.316l.665.227c.734.25 1.257.903 1.342 1.673.03.274.076.536.135.778 2.644 10.808 7.418 20.745 14.191 29.535.416.54.528 1.255.298 1.896-6.169 17.19-13.825 26.795-19.161 31.826l-7.182 7.293c-.38.385-.895.596-1.424.596zm-14.028-7.253c.152 0 .304.018.452.052l12.937 3 6.449-6.546c4.966-4.684 11.993-13.5 17.823-29.303-6.76-9.015-11.549-19.148-14.238-30.139-5.22-1.694-10.813-2.047-16.207-1.022-11.792 2.242-21.384 10.739-25.035 22.174l-.204.638c-2.218 6.95-2.034 14.543.518 21.378l8.213 21.992c2.863-1.461 6.032-2.224 9.292-2.224z" fill="#3762cc"/><path d="m196.698 103.531c-.021 0-.044 0-.066-.001-20.088-.666-39.869-12.652-51.674-21.355l7.439 10.617c.828 1.182.817 2.702-.026 3.873-.832 1.153-2.247 1.638-3.604 1.232-4.867-1.453-9.628-3.371-14.152-5.701-21.064-10.851-36.399-30.436-42.103-53.749-.844-3.45.203-7.114 2.734-9.577.66-.701 7.473-7.706 20.099-11.899 11.923-3.96 31.515-6.033 57.145 6.584.015.007.028.014.042.021 14.38 6.04 25.401 18.123 30.253 33.177 3.747 11.625 3.504 24.344-.684 35.812l-3.524 9.653c-.289.79-1.041 1.313-1.879 1.313zm-54.853-27.92c.706 0 1.416.237 2.028.717 10.441 8.176 30.808 21.865 51.451 23.136l3.02-8.271c3.885-10.636 4.109-22.431.635-33.212-4.51-13.993-14.767-25.21-28.141-30.778-.092-.038-.179-.082-.262-.132-19.186-9.409-37.771-11.612-53.76-6.374-12.115 3.97-18.61 10.863-18.674 10.932-.026.028-.055.058-.082.083-1.537 1.479-2.173 3.695-1.662 5.784 5.427 22.188 20.014 40.823 40.021 51.129 3.729 1.921 7.604 3.54 11.563 4.835l-8.819-12.585c-.959-1.37-.776-3.197.435-4.345.641-.611 1.441-.919 2.247-.919z" fill="#3762cc"/><path d="m134.056 185.366c-.243.019-.485.04-.729.055-.377.023-.755.043-1.134.059-.857.039-1.716.065-2.582.065s-1.726-.027-2.583-.065c-.379-.016-.757-.036-1.135-.059-.243-.016-.484-.036-.726-.055-8.857-.642-17.182-3.166-24.557-7.197v6.91c0 16.066 12.566 29.091 28.067 29.091h1.866c15.501 0 28.067-13.025 28.067-29.091v-6.911c-7.373 4.031-15.698 6.556-24.554 7.198z" fill="#f9cfcf"/><g fill="#3762cc"><path d="m198.977 242.108h-138.73c-1.104 0-2-.896-2-2v-19.505c0-18.952 15.418-34.37 34.37-34.37h6.016c-.014-.388-.021-.773-.021-1.154v-6.91c0-.706.373-1.36.98-1.72.608-.361 1.361-.374 1.979-.035 7.331 4.006 15.318 6.347 23.742 6.958l.71.054c.358.021.724.041 1.091.057 1.663.074 3.335.074 4.99 0 .371-.016.735-.035 1.101-.057l.696-.053c8.436-.611 16.422-2.952 23.752-6.958.619-.338 1.372-.326 1.979.035s.979 1.014.979 1.72v6.911c0 .382-.007.767-.021 1.154h6.016c18.952 0 34.371 15.418 34.371 34.37v19.505c0 1.102-.896 1.998-2 1.998zm-136.73-4h134.729v-17.505c0-16.746-13.624-30.37-30.371-30.37h-8.161c-.566 0-1.106-.24-1.486-.662-.379-.421-.562-.983-.503-1.546.104-.99.156-1.981.156-2.946v-3.639c-7.009 3.36-14.532 5.349-22.41 5.92l-.745.057c-.395.024-.786.044-1.178.061-1.762.08-3.567.08-5.339 0-.387-.017-.776-.037-1.167-.061l-.757-.057c-7.871-.57-15.394-2.559-22.404-5.919v3.638c0 .96.053 1.951.156 2.947.059.563-.125 1.125-.503 1.546-.379.421-.919.661-1.486.661h-8.161c-16.746 0-30.37 13.624-30.37 30.37z"/><path d="m92.959 133.838c-.688 0-1.358-.356-1.73-.994-.556-.955-.233-2.179.721-2.735l14.2-8.272-14.2-8.272c-.954-.556-1.277-1.78-.721-2.735s1.78-1.277 2.735-.721l17.167 10c.615.358.993 1.016.993 1.728s-.378 1.37-.993 1.728l-17.167 10c-.317.185-.663.273-1.005.273z"/><path d="m166.234 133.838c-.342 0-.688-.088-1.005-.272l-17.167-10c-.615-.358-.993-1.016-.993-1.728s.378-1.37.993-1.728l17.167-10c.953-.556 2.179-.233 2.735.721.556.955.232 2.179-.722 2.735l-14.2 8.272 14.2 8.272c.954.556 1.277 1.78.722 2.735-.371.637-1.041.993-1.73.993z"/></g><path d="m210.749 214.126.027-.028-.553-.534-.21-.203-27.496-26.553c-3.588-11.377-10.937-21.197-20.842-27.847l-2.668-1.791c-2.76-1.853-6.333-1.976-9.214-.317l-8.015 4.616c-3.159 1.819-5.741 4.493-7.449 7.714l-4.333 8.171c-1.558 2.937-1.31 6.504.638 9.197l1.883 2.604c6.992 9.666 17.062 16.668 28.557 19.857l28.26 27.29.027-.028c6.153 5.381 15.502 5.057 21.242-.887 5.741-5.945 5.739-15.3.146-21.261z" fill="#f9cfcf"/><path d="m129.234 178.593-4.248-8.011c-1.675-3.157-4.206-5.779-7.303-7.562l-7.857-4.525c-2.824-1.627-6.327-1.506-9.033.311l-2.616 1.756c-9.71 6.52-16.915 16.147-20.433 27.301l-12.56 12.129-10.141 9.793-5.005 4.833.026.027c-5.483 5.844-5.486 15.015.142 20.843 5.628 5.828 14.794 6.145 20.826.87l.026.027.542-.524 4.462-4.309 22.701-21.922c11.27-3.126 21.143-9.991 27.997-19.468l1.846-2.553c1.913-2.64 2.155-6.137.628-9.016z" fill="#f9cfcf"/><path d="m199.518 242.095c-3.958 0-7.928-1.344-11.179-4.064-.142-.079-.274-.176-.394-.291l-27.897-26.94c-11.684-3.361-22.021-10.616-29.15-20.473l-1.884-2.604c-2.413-3.336-2.714-7.669-.784-11.306l4.334-8.171c1.887-3.558 4.728-6.5 8.217-8.51l8.015-4.616c3.571-2.056 7.91-1.905 11.327.389l2.668 1.792c10.099 6.781 17.711 16.858 21.478 28.417l27.897 26.94c.126.122.234.258.323.405 6.08 6.791 5.914 17.127-.446 23.712-3.41 3.531-7.96 5.32-12.525 5.32zm-9.072-7.501c.08.052.158.109.231.174 5.394 4.717 13.515 4.378 18.487-.771s5.028-13.277.125-18.503c-.068-.073-.131-.15-.187-.23l-27.977-27.017c-.239-.231-.418-.519-.518-.837-3.438-10.902-10.559-20.416-20.05-26.788l-2.668-1.792c-2.142-1.438-4.862-1.532-7.101-.245l-8.015 4.616c-2.836 1.634-5.146 4.026-6.68 6.918l-4.334 8.171c-1.209 2.28-1.021 4.996.492 7.088l1.884 2.604c6.7 9.262 16.456 16.046 27.471 19.102.321.089.615.257.855.489z" fill="#3762cc"/><path d="m61.076 242.105c-4.486 0-8.957-1.758-12.307-5.228-6.251-6.473-6.412-16.634-.432-23.307.085-.141.189-.272.313-.392l27.344-26.406c3.696-11.337 11.163-21.22 21.069-27.872l2.615-1.756c3.365-2.258 7.636-2.406 11.146-.383l7.857 4.525c3.427 1.974 6.218 4.864 8.072 8.358l4.248 8.01c1.899 3.58 1.604 7.843-.772 11.126l-1.846 2.552c-6.993 9.668-17.131 16.785-28.59 20.084l-27.344 26.405c-.124.12-.262.223-.41.306-3.19 2.663-7.083 3.978-10.963 3.978zm-9.372-26.316c-.054.078-.114.153-.181.224-4.792 5.108-4.738 13.053.123 18.086 4.861 5.034 12.799 5.364 18.07.754.075-.065.153-.124.234-.176l27.426-26.484c.24-.232.533-.399.854-.489 10.791-2.993 20.348-9.639 26.912-18.713l1.846-2.552c1.475-2.039 1.659-4.686.48-6.908l-4.249-8.01c-1.5-2.829-3.76-5.168-6.534-6.767l-7.857-4.525c-2.181-1.255-4.833-1.165-6.921.239l-2.615 1.756c-9.297 6.243-16.272 15.562-19.641 26.242-.1.318-.278.605-.518.837z" fill="#3762cc"/><path d="m127.054 137.199h8.281c4.918 0 9.321 2.85 11.052 7.154l26.252 65.273c1.138 2.83-.513 5.971-3.604 6.859l-38.646 11.09c-3.703 1.063-7.416-1.62-7.25-5.238z" fill="#e0ebfc"/><path d="m128.737 229.806c-1.751 0-3.47-.577-4.857-1.673-1.846-1.458-2.844-3.604-2.739-5.889l3.916-85.137c.049-1.068.929-1.908 1.998-1.908h8.28c5.698 0 10.886 3.379 12.908 8.407l26.252 65.273c.743 1.849.67 3.854-.207 5.648-.913 1.87-2.627 3.284-4.701 3.879l-38.646 11.09c-.726.208-1.467.31-2.204.31zm.228-90.607-3.828 83.229c-.062 1.344.739 2.186 1.222 2.567.963.76 2.261 1.006 3.478.657l38.646-11.09c.987-.283 1.794-.936 2.211-1.791.373-.763.405-1.615.09-2.399l-26.252-65.273c-1.42-3.529-5.116-5.9-9.197-5.9z" fill="#3762cc"/><path d="m133.268 137.199h-9.772c-4.918 0-9.321 2.85-11.052 7.154l-29.083 72.312c-1.138 2.83.513 5.971 3.604 6.859l43.355 12.441c3.703 1.063 7.416-1.62 7.249-5.238z" fill="#e0ebfc"/><path d="m131.972 238.196c-.736 0-1.478-.102-2.203-.31l-43.355-12.441c-2.074-.595-3.788-2.009-4.702-3.879-.876-1.794-.949-3.799-.206-5.647l29.083-72.312c2.021-5.029 7.209-8.408 12.907-8.408h9.773c1.068 0 1.949.84 1.998 1.908l4.301 93.527c.105 2.284-.893 4.431-2.738 5.889-1.388 1.096-3.107 1.673-4.858 1.673zm-8.476-98.997c-4.082 0-7.777 2.371-9.196 5.9l-29.083 72.312c-.315.784-.284 1.636.089 2.399.417.855 1.223 1.507 2.211 1.791l43.355 12.441c1.216.349 2.515.104 3.478-.657.482-.381 1.284-1.223 1.222-2.566l-4.213-91.619h-7.863z" fill="#3762cc"/><path d="m146.387 144.352c-1.731-4.304-6.134-7.154-11.052-7.154h-2.067-6.214-3.559c-4.918 0-9.321 2.85-11.052 7.154l-3.806 9.463h6.777c1.18 0 2.137.894 2.137 1.998v7.894c0 4.102 3.381 7.679 7.766 7.802 4.538.127 8.259-3.274 8.259-7.488v-8.707c0-.827.717-1.498 1.603-1.498.885 0 1.603.671 1.603 1.498v2.4c0 4.102 3.381 7.679 7.766 7.802 3.895.109 7.181-2.384 8.036-5.757z" fill="#a4c9ff"/><path d="m125.555 173.512c-.098 0-.196-.001-.294-.004-5.354-.15-9.71-4.547-9.71-9.801v-7.871c-.013.005-.054-.021-.137-.021h-6.776c-.664 0-1.285-.33-1.657-.88s-.446-1.25-.198-1.866l3.806-9.463c2.022-5.029 7.209-8.408 12.908-8.408h11.839c5.698 0 10.886 3.379 12.908 8.407l6.196 15.407c.158.393.188.827.083 1.238-1.102 4.341-5.348 7.41-10.03 7.264-3.989-.112-7.423-2.58-8.916-6.003v2.509c0 2.49-1.009 4.843-2.842 6.625-1.882 1.832-4.485 2.867-7.18 2.867zm-13.957-21.696h3.816c2.281 0 4.137 1.793 4.137 3.998v7.894c0 3.109 2.612 5.712 5.822 5.803 1.721.042 3.392-.583 4.573-1.731 1.051-1.022 1.63-2.356 1.63-3.757v-8.707c0-1.929 1.616-3.498 3.603-3.498s3.603 1.569 3.603 3.498v2.4c0 3.109 2.612 5.712 5.822 5.803 2.66.063 5.001-1.441 5.858-3.673l-5.93-14.745c-1.42-3.529-5.116-5.9-9.197-5.9h-11.839c-4.082 0-7.777 2.371-9.197 5.9z" fill="#3762cc"/></svg>