<svg id="Layer_1" enable-background="new 0 0 256 256" height="512" viewBox="0 0 256 256" width="512" xmlns="http://www.w3.org/2000/svg"><path d="m187.872 248.451h-149.054v-20.956c0-19.208 15.571-34.779 34.779-34.779h79.495c19.208 0 34.779 15.571 34.779 34.779v20.956z" fill="#6bdddd"/><path d="m178.368 101.557c-.138 0-.271.018-.408.02v-6.042c0-35.316-28.929-63.945-64.615-63.945-35.686 0-64.615 28.629-64.615 63.945v6.042c-.137-.003-.271-.02-.408-.02-10.887 0-19.713 8.734-19.713 19.509 0 10.774 8.826 19.509 19.713 19.509.715 0 1.42-.042 2.115-.116 6.668 28.289 32.292 49.369 62.908 49.369 30.616 0 56.24-21.08 62.908-49.369.695.073 1.4.116 2.115.116 10.887 0 19.713-8.734 19.713-19.509 0-10.774-8.826-19.509-19.713-19.509z" fill="#f9cfcf"/><path d="m118.121 189.635c-.261.02-.521.042-.783.06-.405.025-.811.046-1.219.063-.92.041-1.844.07-2.774.07-.931 0-1.855-.029-2.775-.07-.408-.017-.814-.039-1.219-.063-.261-.017-.52-.039-.78-.059-9.516-.689-18.461-3.402-26.384-7.733v7.425c0 17.262 13.501 31.256 30.156 31.256h2.005c16.655 0 30.156-13.994 30.156-31.256v-7.425c-7.924 4.33-16.868 7.042-26.383 7.732z" fill="#f9cfcf"/><path d="m187.872 250.451h-149.054c-1.104 0-2-.896-2-2v-20.957c0-20.28 16.499-36.779 36.779-36.779h6.618c-.02-.467-.029-.93-.029-1.388v-7.425c0-.706.372-1.36.979-1.72.607-.362 1.36-.374 1.979-.035 7.896 4.315 16.498 6.835 25.57 7.493l.766.059c.383.023.776.044 1.173.061 1.793.08 3.594.08 5.375 0 .401-.017.795-.038 1.188-.062l.746-.057c9.084-.658 17.686-3.18 25.58-7.494.619-.338 1.372-.326 1.979.035s.979 1.014.979 1.72v7.425c0 .458-.01.921-.029 1.388h6.619c20.28 0 36.779 16.499 36.779 36.779v20.957c.003 1.104-.892 2-1.997 2zm-147.054-4h145.054v-18.957c0-18.074-14.705-32.779-32.779-32.779h-8.769c-.566 0-1.106-.24-1.485-.661s-.563-.982-.504-1.545c.111-1.077.168-2.148.168-3.182v-4.147c-7.575 3.665-15.712 5.832-24.237 6.449l-.798.061c-.427.026-.846.048-1.265.065-1.887.086-3.824.086-5.723 0-.414-.018-.833-.04-1.25-.064l-.816-.063c-8.515-.616-16.651-2.783-24.228-6.448v4.146c0 1.037.057 2.107.169 3.181.059.563-.124 1.125-.504 1.546-.379.421-.919.661-1.485.661h-8.769c-18.074 0-32.779 14.705-32.779 32.779z" fill="#3762cc"/><path d="m113.345 191.828c-30.547 0-56.805-20.17-64.444-49.261-12.228.344-22.291-9.45-22.291-21.5 0-11.329 8.89-20.641 20.121-21.451v-4.079c0-36.362 29.883-65.945 66.614-65.945s66.615 29.583 66.615 65.945v4.079c11.231.811 20.121 10.122 20.121 21.451 0 12.05-10.073 21.82-22.292 21.5-7.64 29.091-33.897 49.261-64.444 49.261zm-62.907-53.369c.917 0 1.73.63 1.944 1.541 6.638 28.16 31.706 47.828 60.962 47.828s54.325-19.668 60.963-47.828c.23-.981 1.147-1.643 2.156-1.53.669.07 1.292.104 1.905.104 9.767 0 17.713-7.854 17.713-17.509 0-9.652-7.943-17.505-17.708-17.508-.181.012-.275.018-.37.02-.532.001-1.058-.194-1.442-.57s-.601-.891-.601-1.429v-6.042c0-34.157-28.089-61.945-62.615-61.945-34.525 0-62.614 27.788-62.614 61.945v6.042c0 .538-.217 1.053-.601 1.429-.385.376-.922.571-1.442.57-.096-.002-.19-.008-.284-.015-.003 0-.008 0-.011 0-9.844 0-17.783 7.852-17.783 17.503 0 9.654 7.946 17.509 17.713 17.509.612 0 1.235-.034 1.904-.104.071-.008.141-.011.211-.011z" fill="#3762cc"/><path d="m27.502 78.921c-2.924-7.829-3.132-16.414-.59-24.376l.218-.684c4.158-13.024 15.113-22.727 28.544-25.282 6.34-1.206 12.884-.745 18.992 1.337l.713.243c.041.37.103.742.194 1.111 2.933 11.989 8.317 23.038 15.632 32.533-6.349 17.689-14.117 27.773-20.039 33.357v.002l-7.773 7.889-15.072-3.494c-4.118 0-7.939 1.253-11.101 3.39z" fill="#4671c6"/><path d="m189.919 52.11c-5.07-15.73-16.649-28.23-31.454-34.392l.001-.008c-52.045-25.619-80.51 5.289-80.51 5.289-2.142 2.062-3.136 5.197-2.384 8.273 5.975 24.423 22.073 44.985 44.102 56.333l.031.016c4.756 2.45 9.721 4.45 14.835 5.976 1.272.38 2.297-1.093 1.527-2.192l-10.701-15.271c-.933-1.331.706-2.956 1.978-1.959 11.833 9.266 34.824 24.616 58.08 25.387l3.787-10.371c4.353-11.921 4.603-24.997.708-37.081z" fill="#4671c6"/><g fill="#3762cc"><path d="m63.394 107.052c-.15 0-.302-.017-.452-.052l-14.842-3.441c-3.5.042-6.87 1.094-9.759 3.046-.51.344-1.147.435-1.729.248-.584-.187-1.05-.631-1.265-1.205l-9.719-26.026c-3.066-8.212-3.287-17.333-.622-25.684l.219-.686c4.385-13.736 15.91-23.943 30.075-26.637 6.668-1.267 13.587-.781 20.011 1.409l.715.244c.733.25 1.256.902 1.342 1.672.033.301.083.589.148.855 2.846 11.633 7.984 22.328 15.273 31.789.416.54.528 1.255.299 1.896-6.619 18.44-14.828 28.742-20.55 34.136l-7.72 7.839c-.38.386-.895.597-1.424.597zm-15.072-7.494c.152 0 .304.017.452.052l13.98 3.241 6.986-7.092c5.351-5.048 12.932-14.56 19.211-31.612-7.278-9.687-12.431-20.582-15.321-32.4-.006-.024-.012-.048-.018-.073-5.655-1.851-11.721-2.242-17.565-1.129-12.724 2.42-23.074 11.587-27.013 23.925l-.219.685c-2.394 7.499-2.195 15.691.56 23.067l8.882 23.785c3.095-1.609 6.529-2.449 10.065-2.449z"/><path d="m185.424 101.562c-.021 0-.044 0-.066-.001-21.967-.728-43.604-14.088-56.174-23.463l8.521 12.159c.853 1.218.842 2.784-.028 3.989-.856 1.187-2.312 1.685-3.709 1.267-5.221-1.558-10.328-3.615-15.178-6.115-22.595-11.638-39.043-32.646-45.16-57.651-.895-3.657.216-7.541 2.898-10.15.687-.73 7.982-8.247 21.535-12.749 12.783-4.246 33.792-6.467 61.285 7.066.016.008.031.016.047.023 15.412 6.471 27.227 19.422 32.427 35.558 4.016 12.46 3.756 26.09-.732 38.38l-3.787 10.371c-.289.793-1.041 1.316-1.879 1.316zm-58.936-29.7c.728 0 1.458.245 2.089.738 11.249 8.809 33.215 23.569 55.472 24.896l3.283-8.991c4.185-11.457 4.427-24.165.684-35.781-4.859-15.075-15.91-27.162-30.319-33.16-.093-.039-.182-.083-.267-.134-50.026-24.537-77.729 4.626-78.003 4.924-.026.029-.055.058-.084.086-1.688 1.625-2.389 4.061-1.828 6.357 5.842 23.88 21.543 43.938 43.076 55.03 4.146 2.136 8.459 3.925 12.868 5.341l-9.731-13.886c-.988-1.411-.8-3.293.448-4.476.662-.627 1.484-.944 2.312-.944z"/><path d="m73.963 119.067v8.479c0 4.08 3.324 7.399 7.411 7.399 4.085 0 7.41-3.319 7.41-7.399v-11.502z"/><path d="m68.675 122.146c-.931 0-1.765-.653-1.958-1.601-.221-1.083.478-2.139 1.561-2.359l25.394-5.181c1.086-.222 2.139.478 2.359 1.56.221 1.083-.478 2.139-1.561 2.359l-25.394 5.181c-.135.028-.269.041-.401.041z"/></g><ellipse cx="113.345" cy="158.041" fill="#f9a7a7" rx="19.166" ry="16.59"/><path d="m159.572 117.555h-.956c-.419 1.27-1.178 2.471-2.242 3.524-1.426 1.412-3.32 2.475-5.452 3.111-.737.22-1.492.365-2.256.455.802 1.003 2.021 1.659 3.405 1.659h7.5c2.416 0 4.375-1.959 4.375-4.375.001-2.415-1.958-4.374-4.374-4.374z" fill="#a4c9ff"/><path d="m146.496 126.77c-1.874 0-3.51-.217-5-.663-2.477-.74-4.65-1.987-6.286-3.605-2.072-2.053-3.214-4.639-3.214-7.28 0-1.104.896-2 2-2s2 .896 2 2c0 1.589.701 3.124 2.028 4.438 1.17 1.158 2.767 2.063 4.617 2.615 1.113.333 2.374.495 3.854.495 1.479 0 2.74-.162 3.854-.495 1.851-.553 3.447-1.458 4.617-2.616 1.328-1.314 2.029-2.849 2.029-4.438 0-1.104.896-2 2-2s2 .896 2 2c0 2.642-1.142 5.228-3.215 7.28-1.636 1.619-3.81 2.866-6.286 3.606-1.489.446-3.125.663-4.998.663z" fill="#3762cc"/><path d="m113.345 176.131c-11.396 0-20.666-8.115-20.666-18.09s9.271-18.09 20.666-18.09 20.667 8.115 20.667 18.09-9.272 18.09-20.667 18.09zm0-33.18c-9.741 0-17.666 6.77-17.666 15.09s7.925 15.09 17.666 15.09 17.667-6.77 17.667-15.09-7.926-15.09-17.667-15.09z" fill="#3762cc"/><path d="m230.854 43.336c0-19.267-18.147-34.885-40.532-34.885s-40.532 15.619-40.532 34.885c0 15.43 11.644 28.511 27.778 33.113l-.531 11.031c-.064 1.335 1.417 2.175 2.53 1.435l16.642-11.064c19.594-2.455 34.645-16.97 34.645-34.515z" fill="#a4c9ff"/><path d="m192.846 50.552c0-.923-.339-1.696-.981-2.235-.606-.508-1.479-.765-2.595-.765h-13.588l12.807-15.245c1.123-1.316 1.856-2.252 2.239-2.863.444-.705.668-1.627.668-2.74 0-2.486-1.447-3.854-4.073-3.854h-16.573c-1.117 0-1.996.286-2.613.849-.63.576-.963 1.36-.963 2.27 0 .891.339 1.657.979 2.214.615.535 1.488.806 2.597.806h11.031l-13.785 16.495c-.24.28-.52.61-.84.989-.334.396-.594.723-.783.982-.223.306-.403.637-.534.981-.143.374-.216.784-.216 1.22 0 1.217.424 2.211 1.261 2.953.806.717 1.974 1.08 3.468 1.08h18.919c1.13 0 2.012-.282 2.622-.839.632-.576.953-1.349.953-2.298z" fill="#ffea92"/><path d="m214.228 58.064c-.482-.404-1.163-.609-2.026-.609h-9.297l8.915-10.611c.818-.958 1.353-1.643 1.638-2.095.343-.548.517-1.255.517-2.103 0-1.919-1.158-3.02-3.177-3.02h-11.962c-.868 0-1.557.227-2.045.675-.506.462-.774 1.089-.774 1.814 0 .715.273 1.329.788 1.777.488.425 1.172.64 2.031.64h7.454l-9.623 11.514-.607.715c-.244.291-.435.531-.574.72-.173.237-.314.494-.417.765-.113.297-.171.622-.171.964 0 .936.343 1.735.99 2.309.627.557 1.523.84 2.662.84h13.654c.876 0 1.567-.224 2.053-.667.501-.457.766-1.092.766-1.836-.002-.738-.276-1.358-.795-1.792z" fill="#ffea92"/><path d="m178.665 91.19c-.615 0-1.232-.158-1.793-.476-1.197-.68-1.9-1.956-1.834-3.331l.457-9.473c-16.638-5.352-27.705-19.073-27.705-34.574 0-20.338 19.08-36.885 42.532-36.885s42.531 16.547 42.531 36.885c0 18.071-15.41 33.663-35.926 36.438l-16.253 10.806c-.611.406-1.309.61-2.009.61zm11.657-80.739c-21.247 0-38.532 14.752-38.532 32.885 0 14.165 10.579 26.698 26.326 31.189.894.255 1.493 1.091 1.449 2.02l-.496 10.299 16.031-10.659c.258-.171.552-.28.858-.319 18.753-2.349 32.895-16.333 32.895-32.53.001-18.133-17.285-32.885-38.531-32.885z" fill="#3762cc"/></svg>